<?xml version="1.0" standalone="no"?>
<!DOCTYPE svg PUBLIC "-//W3C//DTD SVG 20010904//EN"
 "http://www.w3.org/TR/2001/REC-SVG-20010904/DTD/svg10.dtd">
<svg version="1.0" xmlns="http://www.w3.org/2000/svg"
 width="50.000000pt" height="50.000000pt" viewBox="0 0 50.000000 50.000000"
 preserveAspectRatio="xMidYMid meet">

<g transform="translate(0.000000,50.000000) scale(0.100000,-0.100000)"
fill="#000000" stroke="none">
<path d="M128 429 c-43 -22 -78 -81 -78 -129 0 -53 36 -108 85 -132 44 -22 45
-23 45 -70 l0 -48 135 0 135 0 0 135 0 135 -48 0 c-47 0 -48 1 -70 45 -37 77
-126 105 -204 64z m116 -23 c34 -14 66 -50 66 -73 0 -8 -21 -13 -62 -15 l-63
-3 -3 -62 c-2 -44 -7 -63 -16 -63 -26 0 -66 41 -77 80 -15 51 11 107 61 132
42 22 51 22 94 4z m66 -142 c0 -8 -13 -29 -29 -45 -44 -43 -61 -39 -61 16 l0
45 45 0 c34 0 45 -4 45 -16z m108 -81 l-3 -98 -97 -3 -98 -3 0 34 c0 29 5 35
45 55 34 17 50 33 67 67 20 40 26 45 55 45 l34 0 -3 -97z"/>
</g>
</svg>
