<?xml version="1.0" standalone="no"?>
<!DOCTYPE svg PUBLIC "-//W3C//DTD SVG 20010904//EN"
 "http://www.w3.org/TR/2001/REC-SVG-20010904/DTD/svg10.dtd">
<svg version="1.0" xmlns="http://www.w3.org/2000/svg"
 width="48.000000pt" height="48.000000pt" viewBox="0 0 48.000000 48.000000"
 preserveAspectRatio="xMidYMid meet">

<g transform="translate(0.000000,48.000000) scale(0.100000,-0.100000)"
fill="#000000" stroke="none">
<path d="M77 402 c-14 -16 -17 -43 -17 -164 0 -188 -10 -178 182 -178 188 0
178 -10 178 182 0 188 10 178 -182 178 -128 0 -147 -2 -161 -18z m311 -124 c1
-60 -1 -108 -6 -108 -4 0 -21 14 -37 30 -32 33 -56 38 -75 15 -11 -13 -18 -10
-51 20 -47 42 -64 43 -101 8 l-28 -27 0 80 c0 45 3 84 7 88 4 3 70 5 147 4
l141 -3 3 -107z m-190 -71 l32 -33 -44 -43 c-57 -56 -89 -55 -94 3 -3 32 2 44
29 72 18 19 36 34 39 34 3 0 20 -15 38 -33z m151 -51 c24 -24 40 -49 37 -55
-5 -7 -45 -11 -104 -11 l-96 0 54 55 c30 30 57 55 60 55 3 0 25 -20 49 -44z"/>
<path d="M272 338 c-15 -15 -15 -51 0 -66 15 -15 51 -15 66 0 28 28 7 78 -33
78 -12 0 -26 -5 -33 -12z m48 -33 c0 -8 -7 -15 -15 -15 -8 0 -15 7 -15 15 0 8
7 15 15 15 8 0 15 -7 15 -15z"/>
</g>
</svg>
