<?xml version="1.0" standalone="no"?>
<!DOCTYPE svg PUBLIC "-//W3C//DTD SVG 20010904//EN"
 "http://www.w3.org/TR/2001/REC-SVG-20010904/DTD/svg10.dtd">
<svg version="1.0" xmlns="http://www.w3.org/2000/svg"
 width="48.000000pt" height="48.000000pt" viewBox="0 0 48.000000 48.000000"
 preserveAspectRatio="xMidYMid meet">

<g transform="translate(0.000000,48.000000) scale(0.100000,-0.100000)"
fill="#000000" stroke="none">
<path d="M110 280 c0 -117 3 -170 11 -170 6 0 25 12 42 26 l31 26 28 -63 c16
-35 31 -65 33 -68 7 -7 75 27 75 38 0 4 -11 34 -25 65 -14 31 -25 59 -25 61 0
3 15 5 33 5 75 1 69 13 -58 135 -66 63 -126 114 -132 115 -10 0 -13 -40 -13
-170z m172 -53 c-20 -4 -37 -9 -39 -11 -3 -2 7 -31 21 -65 29 -68 31 -81 13
-81 -7 0 -23 27 -36 60 -14 34 -28 63 -33 66 -4 3 -22 -4 -38 -16 l-30 -21 0
121 0 122 89 -84 89 -83 -36 -8z"/>
</g>
</svg>
