<?xml version="1.0" standalone="no"?>
<!DOCTYPE svg PUBLIC "-//W3C//DTD SVG 20010904//EN"
 "http://www.w3.org/TR/2001/REC-SVG-20010904/DTD/svg10.dtd">
<svg version="1.0" xmlns="http://www.w3.org/2000/svg"
 width="48.000000pt" height="48.000000pt" viewBox="0 0 48.000000 48.000000"
 preserveAspectRatio="xMidYMid meet">

<g transform="translate(0.000000,48.000000) scale(0.100000,-0.100000)"
fill="#000000" stroke="none">
<path d="M79 393 c-11 -30 -4 -74 14 -85 7 -4 65 -8 129 -8 110 0 118 1 132
22 16 22 16 22 16 -9 0 -30 -1 -31 -77 -49 -52 -13 -80 -25 -87 -39 -6 -10
-17 -25 -23 -33 -18 -19 -17 -107 1 -121 8 -7 27 -11 43 -9 27 3 28 6 31 63 3
48 0 62 -15 73 -23 16 -8 27 51 36 78 12 104 25 111 55 7 33 -9 81 -27 81 -7
0 -18 10 -23 23 -10 21 -16 22 -138 25 l-127 3 -11 -28z m251 -33 l0 -30 -110
0 -110 0 0 30 0 30 110 0 110 0 0 -30z m-100 -230 c0 -29 -4 -40 -15 -40 -11
0 -15 11 -15 40 0 29 4 40 15 40 11 0 15 -11 15 -40z"/>
</g>
</svg>
