<?xml version="1.0" standalone="no"?>
<!DOCTYPE svg PUBLIC "-//W3C//DTD SVG 20010904//EN"
 "http://www.w3.org/TR/2001/REC-SVG-20010904/DTD/svg10.dtd">
<svg version="1.0" xmlns="http://www.w3.org/2000/svg"
 width="64.000000pt" height="64.000000pt" viewBox="0 0 64.000000 64.000000"
 preserveAspectRatio="xMidYMid meet">

<g transform="translate(0.000000,64.000000) scale(0.100000,-0.100000)"
fill="#000000" stroke="none">
<path d="M40 600 c-27 -27 -27 -93 0 -120 11 -11 25 -20 30 -20 6 0 10 -53 10
-140 0 -87 -4 -140 -10 -140 -6 0 -19 -9 -30 -20 -27 -27 -27 -93 0 -120 27
-27 93 -27 120 0 11 11 20 25 20 30 0 6 53 10 140 10 87 0 140 -4 140 -10 0
-24 41 -50 80 -50 53 0 80 27 80 80 0 39 -26 80 -50 80 -6 0 -10 53 -10 140 0
87 4 140 10 140 24 0 50 41 50 80 0 53 -27 80 -80 80 -39 0 -80 -26 -80 -50 0
-6 -53 -10 -140 -10 -87 0 -140 4 -140 10 0 24 -41 50 -80 50 -27 0 -47 -7
-60 -20z m95 -60 c0 -33 -2 -35 -35 -35 -29 0 -36 4 -38 23 -6 40 5 54 40 50
30 -3 33 -6 33 -38z m440 0 c0 -33 -2 -35 -35 -35 -29 0 -36 4 -38 23 -6 40 5
54 40 50 30 -3 33 -6 33 -38z m-107 -44 c6 -13 20 -27 31 -31 20 -6 21 -14 21
-145 0 -131 -1 -139 -21 -145 -11 -4 -25 -18 -31 -31 -11 -24 -13 -24 -148
-24 -135 0 -137 0 -148 24 -6 13 -20 27 -31 31 -20 6 -21 14 -21 145 0 131 1
139 21 145 11 4 25 18 31 31 11 24 13 24 148 24 135 0 137 0 148 -24z m-333
-396 c0 -33 -2 -35 -35 -35 -29 0 -36 4 -38 23 -6 40 5 54 40 50 30 -3 33 -6
33 -38z m440 0 c0 -33 -2 -35 -35 -35 -29 0 -36 4 -38 23 -6 40 5 54 40 50 30
-3 33 -6 33 -38z"/>
<path d="M184 446 c-3 -7 -4 -33 -2 -57 3 -43 4 -44 40 -47 l37 -3 3 -77 3
-77 55 0 55 0 3 77 3 77 37 3 37 3 0 55 0 55 -133 3 c-107 2 -133 0 -138 -12z
m236 -45 c0 -16 -8 -20 -37 -23 l-38 -3 -3 -77 c-3 -69 -5 -78 -22 -78 -17 0
-19 9 -22 78 l-3 77 -37 3 c-30 3 -38 7 -38 23 0 18 8 19 100 19 92 0 100 -1
100 -19z"/>
</g>
</svg>
