<?xml version="1.0" encoding="UTF-8"?>
<!DOCTYPE svg PUBLIC "-//W3C//DTD SVG 1.1//EN" "http://www.w3.org/Graphics/SVG/1.1/DTD/svg11.dtd">
<svg xmlns="http://www.w3.org/2000/svg" version="1.1" width="50px" height="50px" style="shape-rendering:geometricPrecision; text-rendering:geometricPrecision; image-rendering:optimizeQuality; fill-rule:evenodd; clip-rule:evenodd" xmlns:xlink="http://www.w3.org/1999/xlink">
<g><path style="opacity:0.875" fill="#000000" d="M 3.5,3.5 C 17.504,3.33343 31.504,3.50009 45.5,4C 46,4.5 46.5,5 47,5.5C 47.6667,15.5 47.6667,25.5 47,35.5C 46.5,36 46,36.5 45.5,37C 37.1667,37.3333 28.8333,37.6667 20.5,38C 17.9461,43.6096 13.6128,46.1096 7.5,45.5C 7.9802,42.9954 8.9802,40.6621 10.5,38.5C 7.40739,38.0019 4.57406,37.0019 2,35.5C 1.33333,25.5 1.33333,15.5 2,5.5C 2.71719,4.9558 3.21719,4.28913 3.5,3.5 Z M 6.5,5.5 C 18.8836,5.18661 31.217,5.51994 43.5,6.5C 44.1924,7.02527 44.6924,7.69194 45,8.5C 45.8029,16.8822 45.6362,25.2155 44.5,33.5C 43.9747,34.1924 43.3081,34.6924 42.5,35C 34.1468,35.1683 25.8134,35.6683 17.5,36.5C 14.2087,42.9934 12.7087,42.9934 13,36.5C 10.9307,35.7362 8.76399,35.2362 6.5,35C 5.33333,34.5 4.5,33.6667 4,32.5C 3.33333,24.5 3.33333,16.5 4,8.5C 4.69794,7.30943 5.53128,6.30943 6.5,5.5 Z"/></g>
</svg>
