<?xml version="1.0" encoding="UTF-8"?>
<!DOCTYPE svg PUBLIC "-//W3C//DTD SVG 1.1//EN" "http://www.w3.org/Graphics/SVG/1.1/DTD/svg11.dtd">
<svg xmlns="http://www.w3.org/2000/svg" version="1.1" width="50px" height="50px" style="shape-rendering:geometricPrecision; text-rendering:geometricPrecision; image-rendering:optimizeQuality; fill-rule:evenodd; clip-rule:evenodd" xmlns:xlink="http://www.w3.org/1999/xlink">
<g><path style="opacity:0.799" fill="#000000" d="M 13.5,4.5 C 21.68,2.68436 28.18,5.01769 33,11.5C 34.128,13.3453 34.628,15.3453 34.5,17.5C 37.8333,17.5 41.1667,17.5 44.5,17.5C 44.5,26.5 44.5,35.5 44.5,44.5C 35.5,44.5 26.5,44.5 17.5,44.5C 17.5,41.1667 17.5,37.8333 17.5,34.5C 6.2551,32.0283 2.08844,25.0283 5,13.5C 6.68784,9.31481 9.52117,6.31481 13.5,4.5 Z M 16.5,8.5 C 23.5438,7.55736 28.2105,10.3907 30.5,17C 26.1794,17.499 21.8461,17.6657 17.5,17.5C 17.6657,21.8461 17.499,26.1794 17,30.5C 9.21997,27.1738 6.88664,21.5071 10,13.5C 11.8049,11.1743 13.9716,9.50767 16.5,8.5 Z M 21.5,21.5 C 24.5184,21.3354 27.5184,21.502 30.5,22C 29,26.1667 26.1667,29 22,30.5C 21.502,27.5184 21.3354,24.5184 21.5,21.5 Z M 34.5,21.5 C 36.5,21.5 38.5,21.5 40.5,21.5C 40.5,27.8333 40.5,34.1667 40.5,40.5C 34.1667,40.5 27.8333,40.5 21.5,40.5C 21.5,38.5 21.5,36.5 21.5,34.5C 29.5,33.8333 33.8333,29.5 34.5,21.5 Z"/></g>
</svg>
