<?xml version="1.0" encoding="UTF-8"?>
<!DOCTYPE svg PUBLIC "-//W3C//DTD SVG 1.1//EN" "http://www.w3.org/Graphics/SVG/1.1/DTD/svg11.dtd">
<svg xmlns="http://www.w3.org/2000/svg" version="1.1" width="48px" height="48px" style="shape-rendering:geometricPrecision; text-rendering:geometricPrecision; image-rendering:optimizeQuality; fill-rule:evenodd; clip-rule:evenodd" xmlns:xlink="http://www.w3.org/1999/xlink">
<g><path style="opacity:0.856" fill="#000000" d="M 7.5,5.5 C 18.1719,5.3335 28.8385,5.50016 39.5,6C 40,6.5 40.5,7 41,7.5C 41.6667,18.1667 41.6667,28.8333 41,39.5C 40.5,40 40,40.5 39.5,41C 28.8333,41.6667 18.1667,41.6667 7.5,41C 7,40.5 6.5,40 6,39.5C 5.33333,28.8333 5.33333,18.1667 6,7.5C 6.71719,6.9558 7.21719,6.28913 7.5,5.5 Z M 11.5,8.5 C 19.8886,8.1968 28.222,8.53013 36.5,9.5C 37.1924,10.0253 37.6924,10.6919 38,11.5C 38.6667,17.8333 38.6667,24.1667 38,30.5C 36.1667,28.6667 34.3333,26.8333 32.5,25C 29.6529,24.0561 27.1529,24.5561 25,26.5C 21.7788,22.2269 17.6122,20.3935 12.5,21C 11.3333,22.1667 10.1667,23.3333 9,24.5C 8.33333,20.1667 8.33333,15.8333 9,11.5C 9.69794,10.3094 10.5313,9.30943 11.5,8.5 Z M 14.5,24.5 C 17.2254,25.713 19.5588,27.5464 21.5,30C 18.6511,33.0162 15.6511,35.8496 12.5,38.5C 8.94489,36.9235 7.77823,34.2568 9,30.5C 11.0396,28.6298 12.8729,26.6298 14.5,24.5 Z M 28.5,28.5 C 32.0801,30.4076 35.0801,33.0743 37.5,36.5C 36.9747,37.1924 36.3081,37.6924 35.5,38C 30.1667,38.6667 24.8333,38.6667 19.5,38C 22.7044,34.9641 25.7044,31.7974 28.5,28.5 Z"/></g>
<g><path style="opacity:0.744" fill="#000000" d="M 26.5,12.5 C 34.1589,11.0099 36.4922,13.8432 33.5,21C 25.7558,22.8002 23.4224,19.9669 26.5,12.5 Z"/></g>
</svg>
