<?xml version="1.0" encoding="UTF-8"?>
<!DOCTYPE svg PUBLIC "-//W3C//DTD SVG 1.1//EN" "http://www.w3.org/Graphics/SVG/1.1/DTD/svg11.dtd">
<svg xmlns="http://www.w3.org/2000/svg" version="1.1" width="48px" height="48px" style="shape-rendering:geometricPrecision; text-rendering:geometricPrecision; image-rendering:optimizeQuality; fill-rule:evenodd; clip-rule:evenodd" xmlns:xlink="http://www.w3.org/1999/xlink">
<g><path style="opacity:0.782" fill="#000000" d="M 10.5,2.5 C 11.8734,2.34332 13.2068,2.50999 14.5,3C 21.3638,10.1983 28.5305,17.0316 36,23.5C 36.49,24.7932 36.6567,26.1266 36.5,27.5C 33.5178,27.1044 30.8511,27.7711 28.5,29.5C 30.3604,33.0825 32.0271,36.7492 33.5,40.5C 30.8973,43.923 27.564,44.923 23.5,43.5C 22.1026,39.7056 20.4359,36.0389 18.5,32.5C 16.4763,35.2057 13.8097,36.539 10.5,36.5C 10.5,25.1667 10.5,13.8333 10.5,2.5 Z M 13.5,8.5 C 18.9969,13.8292 24.6635,18.9958 30.5,24C 28.1902,24.4966 25.8568,24.6633 23.5,24.5C 24.1565,29.6539 25.8232,34.4873 28.5,39C 28,39.5 27.5,40 27,40.5C 25.2635,36.4578 23.4301,32.4578 21.5,28.5C 18.5717,27.2123 16.0717,27.879 14,30.5C 13.5003,23.1742 13.3337,15.8409 13.5,8.5 Z"/></g>
</svg>
