<?xml version="1.0" encoding="UTF-8"?>
<!DOCTYPE svg PUBLIC "-//W3C//DTD SVG 1.1//EN" "http://www.w3.org/Graphics/SVG/1.1/DTD/svg11.dtd">
<svg xmlns="http://www.w3.org/2000/svg" version="1.1" width="24px" height="24px" style="shape-rendering:geometricPrecision; text-rendering:geometricPrecision; image-rendering:optimizeQuality; fill-rule:evenodd; clip-rule:evenodd" xmlns:xlink="http://www.w3.org/1999/xlink">
<g><path style="opacity:0.968" fill="#000000" d="M 5.5,2.5 C 9.5,2.5 13.5,2.5 17.5,2.5C 17.5,3.83333 17.5,5.16667 17.5,6.5C 18.8333,6.5 20.1667,6.5 21.5,6.5C 21.5,9.83333 21.5,13.1667 21.5,16.5C 20.1667,16.5 18.8333,16.5 17.5,16.5C 17.5,17.8333 17.5,19.1667 17.5,20.5C 13.5,20.5 9.5,20.5 5.5,20.5C 5.5,19.1667 5.5,17.8333 5.5,16.5C 4.16667,16.5 2.83333,16.5 1.5,16.5C 1.5,13.1667 1.5,9.83333 1.5,6.5C 2.83333,6.5 4.16667,6.5 5.5,6.5C 5.5,5.16667 5.5,3.83333 5.5,2.5 Z M 7.5,4.5 C 10.2469,4.18665 12.9135,4.51998 15.5,5.5C 14.1667,5.83333 12.8333,6.16667 11.5,6.5C 9.66723,6.41456 8.3339,5.7479 7.5,4.5 Z M 18.5,9.5 C 19.7879,11.0348 19.7879,12.7015 18.5,14.5C 13.8333,11.8333 9.16667,11.8333 4.5,14.5C 3.24039,12.6471 3.24039,10.8138 4.5,9C 9.35219,8.18492 14.0189,8.35159 18.5,9.5 Z M 7.5,14.5 C 10.1667,14.5 12.8333,14.5 15.5,14.5C 15.5,15.8333 15.5,17.1667 15.5,18.5C 12.8333,18.5 10.1667,18.5 7.5,18.5C 7.5,17.1667 7.5,15.8333 7.5,14.5 Z"/></g>
<g><path style="opacity:0.766" fill="#000000" d="M 18.5,9.5 C 18.3605,11.337 17.6939,11.6704 16.5,10.5C 16.9569,9.70245 17.6236,9.36912 18.5,9.5 Z"/></g>
</svg>
