<?xml version="1.0" encoding="UTF-8"?>
<!DOCTYPE svg PUBLIC "-//W3C//DTD SVG 1.1//EN" "http://www.w3.org/Graphics/SVG/1.1/DTD/svg11.dtd">
<svg xmlns="http://www.w3.org/2000/svg" version="1.1" width="64px" height="64px" style="shape-rendering:geometricPrecision; text-rendering:geometricPrecision; image-rendering:optimizeQuality; fill-rule:evenodd; clip-rule:evenodd" xmlns:xlink="http://www.w3.org/1999/xlink">
<g><path style="opacity:0.908" fill="#000000" d="M 3.5,1.5 C 7.51383,1.33449 11.5138,1.50115 15.5,2C 17.1554,3.44425 17.822,5.27759 17.5,7.5C 26.8333,7.5 36.1667,7.5 45.5,7.5C 45.178,5.27759 45.8446,3.44425 47.5,2C 60,-1.5 64.5,3 61,15.5C 59.5557,17.1554 57.7224,17.822 55.5,17.5C 55.5,26.8333 55.5,36.1667 55.5,45.5C 57.7224,45.178 59.5557,45.8446 61,47.5C 64.5,60 60,64.5 47.5,61C 45.8446,59.5557 45.178,57.7224 45.5,55.5C 36.1667,55.5 26.8333,55.5 17.5,55.5C 17.822,57.7224 17.1554,59.5557 15.5,61C 3,64.5 -1.5,60 2,47.5C 3.44425,45.8446 5.27759,45.178 7.5,45.5C 7.5,36.1667 7.5,26.8333 7.5,17.5C 5.27759,17.822 3.44425,17.1554 2,15.5C 0.965575,10.5431 1.46558,5.8764 3.5,1.5 Z M 7.5,5.5 C 13.4877,5.66395 14.821,8.16395 11.5,13C 5.40339,13.1475 4.07006,10.6475 7.5,5.5 Z M 51.5,5.5 C 57.4877,5.66395 58.821,8.16395 55.5,13C 49.4034,13.1475 48.0701,10.6475 51.5,5.5 Z M 17.5,11.5 C 26.8333,11.5 36.1667,11.5 45.5,11.5C 45.1667,15.8333 47.1667,17.8333 51.5,17.5C 51.5,26.8333 51.5,36.1667 51.5,45.5C 47.1667,45.1667 45.1667,47.1667 45.5,51.5C 36.1667,51.5 26.8333,51.5 17.5,51.5C 17.8333,47.1667 15.8333,45.1667 11.5,45.5C 11.5,36.1667 11.5,26.8333 11.5,17.5C 15.8333,17.8333 17.8333,15.8333 17.5,11.5 Z M 21.5,21.5 C 28.1667,21.5 34.8333,21.5 41.5,21.5C 41.5,22.8333 41.5,24.1667 41.5,25.5C 38.8333,25.5 36.1667,25.5 33.5,25.5C 33.5,30.8333 33.5,36.1667 33.5,41.5C 32.1667,41.5 30.8333,41.5 29.5,41.5C 29.5,36.1667 29.5,30.8333 29.5,25.5C 26.8333,25.5 24.1667,25.5 21.5,25.5C 21.5,24.1667 21.5,22.8333 21.5,21.5 Z M 7.5,49.5 C 13.4877,49.664 14.821,52.164 11.5,57C 5.40339,57.1475 4.07006,54.6475 7.5,49.5 Z M 51.5,49.5 C 57.4877,49.664 58.821,52.164 55.5,57C 49.4034,57.1475 48.0701,54.6475 51.5,49.5 Z"/></g>
<g><path style="opacity:0.981" fill="#000000" d="M 17.5,17.5 C 26.8333,17.5 36.1667,17.5 45.5,17.5C 45.5,21.5 45.5,25.5 45.5,29.5C 42.8333,29.5 40.1667,29.5 37.5,29.5C 37.5,34.8333 37.5,40.1667 37.5,45.5C 33.5,45.5 29.5,45.5 25.5,45.5C 25.5,40.1667 25.5,34.8333 25.5,29.5C 22.8333,29.5 20.1667,29.5 17.5,29.5C 17.5,25.5 17.5,21.5 17.5,17.5 Z M 21.5,21.5 C 21.5,22.8333 21.5,24.1667 21.5,25.5C 24.1667,25.5 26.8333,25.5 29.5,25.5C 29.5,30.8333 29.5,36.1667 29.5,41.5C 30.8333,41.5 32.1667,41.5 33.5,41.5C 33.5,36.1667 33.5,30.8333 33.5,25.5C 36.1667,25.5 38.8333,25.5 41.5,25.5C 41.5,24.1667 41.5,22.8333 41.5,21.5C 34.8333,21.5 28.1667,21.5 21.5,21.5 Z"/></g>
</svg>
